<svg width="49" height="76" viewBox="0 0 49 76" fill="none" xmlns="http://www.w3.org/2000/svg">
<path d="M48.4774 0H0V55.7622H48.4774V0Z" fill="white"/>
<path d="M35.5889 1.9243C35.604 1.69407 35.9426 1.69407 35.9561 1.9243C36.2375 6.34092 36.8891 13.3925 38.2344 14.7362C39.5797 16.0815 44.1287 16.7331 46.9277 17.0145C47.1504 17.0371 47.1504 17.3591 46.9277 17.3817C44.1287 17.6631 39.5797 18.3147 38.2344 19.66C36.7266 21.1678 36.09 31.545 35.8703 36.4657C35.8643 36.5906 35.6807 36.5906 35.6747 36.4657C35.455 31.545 34.8185 21.1678 33.3106 19.66C31.7607 18.11 20.3226 17.481 15.3643 17.2779C15.262 17.2734 15.262 17.1214 15.3643 17.1184C20.3226 16.9167 31.7607 16.2862 33.3106 14.7362C34.6559 13.3909 35.3075 6.34092 35.5889 1.9243Z" fill="#2F2F2F"/>
<path d="M1.12 64.344H3.84L8.256 71.816V64.344H10.384V75H7.696L3.248 67.48V75H1.12V64.344Z" fill="white"/>
<path d="M19.036 75.208C17.9907 75.208 17.068 74.9787 16.268 74.52C15.468 74.0613 14.844 73.416 14.396 72.584C13.9587 71.752 13.74 70.7973 13.74 69.72C13.74 68.632 13.9587 67.672 14.396 66.84C14.8333 66.008 15.452 65.3627 16.252 64.904C17.052 64.4453 17.98 64.216 19.036 64.216C20.0813 64.216 21.004 64.4453 21.804 64.904C22.604 65.352 23.2227 65.9867 23.66 66.808C24.0973 67.6293 24.316 68.5787 24.316 69.656C24.316 70.7547 24.0973 71.7253 23.66 72.568C23.2227 73.4 22.604 74.0507 21.804 74.52C21.004 74.9787 20.0813 75.208 19.036 75.208ZM19.036 73.176C19.9107 73.176 20.6093 72.8613 21.132 72.232C21.6653 71.6027 21.932 70.7653 21.932 69.72C21.932 69.0373 21.8093 68.4347 21.564 67.912C21.3293 67.3787 20.988 66.9733 20.54 66.696C20.1027 66.408 19.6013 66.264 19.036 66.264C18.4707 66.264 17.964 66.408 17.516 66.696C17.0787 66.9733 16.7373 67.3787 16.492 67.912C16.2573 68.4347 16.14 69.0373 16.14 69.72C16.14 70.4027 16.2573 71.0053 16.492 71.528C16.7373 72.0507 17.0787 72.456 17.516 72.744C17.9533 73.032 18.46 73.176 19.036 73.176Z" fill="white"/>
<path d="M26.485 64.344H29.045L31.573 72.472L34.085 64.344H36.469L32.885 75H30.085L26.485 64.344Z" fill="white"/>
<path d="M41.3629 64.344H44.1469L48.0989 75H45.6989L44.8349 72.568H40.6429L39.8269 75H37.4589L41.3629 64.344ZM44.1469 70.584L42.7069 66.504L41.3149 70.584H44.1469Z" fill="white"/>
</svg>
