<svg width="31" height="36" viewBox="0 0 31 36" fill="none" xmlns="http://www.w3.org/2000/svg">
<path d="M31 0H0V35.6584H31V0Z" fill="#F22E00"/>
<path d="M22.758 1.23077C22.7676 1.08354 22.9841 1.08354 22.9928 1.23077C23.1727 4.05507 23.5894 8.56434 24.4497 9.42366C25.31 10.2839 28.2189 10.7006 30.0088 10.8806C30.1512 10.895 30.1512 11.1009 30.0088 11.1154C28.2189 11.2953 25.31 11.712 24.4497 12.5723C23.4855 13.5365 23.0784 20.1724 22.9379 23.319C22.9341 23.3989 22.8167 23.3989 22.8128 23.319C22.6723 20.1724 22.2653 13.5365 21.3011 12.5723C20.3099 11.5811 12.9956 11.1789 9.82487 11.049C9.75944 11.0461 9.75944 10.9489 9.82487 10.947C12.9956 10.818 20.3099 10.4148 21.3011 9.42366C22.1614 8.56338 22.578 4.05507 22.758 1.23077Z" fill="white"/>
</svg>
